{"title":"The Turning Point [1952]","uid":5422638,"size":1101593795,"categoryP":"video","categoryS":"movies","magnet":"?xt=urn:btih:27a740fa65b364a635e136f1a1acae5ca7d0cc4a&amp;dn=The+Turning+Point+%5B1952%5D&amp;tr=udp%3A%2F%2Ftracker.openbittorrent.com%3A80&amp;tr=udp%3A%2F%2Fopen.demonii.com%3A1337&amp;tr=udp%3A%2F%2Ftracker.coppersurfer.tk%3A6969&amp;tr=udp%3A%2F%2Fexodus.desync.com%3A6969","seeders":1,"leechers":0,"uploader":"aszeran","files":2,"time":1268093437,"description":"Movies : Crime : Other quality : English\n. &lt;a href=&quot;\nhttp://www.imdb.com/title/tt0045267/&quot; rel=&quot;nofollow&quot; target=&quot;_NEW&quot;&gt;\nhttp://www.imdb.com/title/tt0045267/&lt;/a&gt;\n\nSpecial prosecutor John Conroy hopes to combat organized crime in his city, and appoints his cop father Matt as chief investigator. John doesn't understand why Matt is reluctant, but cynical reporter Jerry McKibbon thinks he knows: he's seen Matt with mob lieutenant Harrigan. Jerry's friendship for John is tested by the question of what to do about Matt, and by his attraction to John's girl Amanda. Meanwhile, the threatened racketeers adopt increasingly violent means of defense.\n\nGeneral\nComplete name : Z:SeedboxTHE TURNING POINT (1952)The Turning Point.divx\nFormat : DivX\nFormat/Info : Hack of AVI\nFile size : 1.03 GiB\nDuration : 1h 25mn\nOverall bit rate : 1 727 Kbps\n\nVideo\nFormat : MPEG-4 Visual\nFormat settings, BVOP : Yes\nFormat settings, QPel : No\nFormat settings, GMC : No warppoints\nFormat settings, Matrix : Default\nMuxing mode : Packed bitstream\nCodec ID : DX50\nCodec ID/Hint : DivX 5\nDuration : 1h 25mn\nBit rate : 1 590 Kbps\n\nWidth : 640 pixels\nHeight : 480 pixels\n\nDisplay aspect ratio : 4/3\nFrame rate : 23.979 fps\nResolution : 24 bits\nColorimetry : 4:2:0\nScan type : Progressive\n\nBits/(Pixel*Frame) : 0.216\nStream size : 967 MiB (92%)\nTitle : Main\nWriting library : DivX 2816\n\nAudio\nFormat : MPEG Audio\nFormat version : Version 1\nFormat profile : Layer 3\nCodec ID : 55\nCodec ID/Hint : MP3\nDuration : 1h 25mn\nBit rate mode : Constant\nBit rate : 128 Kbps\nChannel(s) : 2 channels\nSampling rate : 48.0 KHz\nResolution : 16 bits\nStream size : 77.9 MiB (7%)\nAlignment : Split accross interleaves\nInterleave, duration : 42 ms (1.00 video frame)\nInterleave, preload duration : 500 ms\nTitle : Audio\nWriting library : LAME3.97","torrent":{"xt":"urn:btih:27a740fa65b364a635e136f1a1acae5ca7d0cc4a","amp;dn":"The+Turning+Point+%5B1952%5D","amp;tr":["udp%3A%2F%2Ftracker.openbittorrent.com%3A80","udp%3A%2F%2Fopen.demonii.com%3A1337","udp%3A%2F%2Ftracker.coppersurfer.tk%3A6969","udp%3A%2F%2Fexodus.desync.com%3A6969"],"infoHash":"27a740fa65b364a635e136f1a1acae5ca7d0cc4a","infoHashBuffer":{"type":"Buffer","data":[39,167,64,250,101,179,100,166,53,225,54,241,161,172,174,92,167,208,204,74]},"announce":[],"urlList":[]}}